# xmcd
#
# Track frame offsets: 
#        150
#        14670
#        28617
#        43682
#        75242
#        108762
#        126915
#        145985
#        181865
#        216677
#        242622
#        271757
#        286250
#        309302
#        320430
#        332960
#
# Disc length: 4651 seconds
#
# Revision: 1
# Processed by: cddbd v1.5.2PL0 Copyright (c) Steve Scherf et al.
# Submitted via: ExactAudioCopyFreeDBPlugin 1.0
#
DISCID=e1122910
DTITLE=Various Artist - Svensk jazzhistoria. Vol. 9 - Swedish jazz 19
DTITLE=60-1964 - Brand new!
DYEAR=2003
DGENRE=Jazz
TTITLE0=Gals and Pals - Det är vårt öde att doa
TTITLE1=Lars Erstrand and Co. - Vi gå över daggstänkta berg
TTITLE2=Gösta Törners kvintett - China boy
TTITLE3=Lars Gullins ensemble - Portrait of my pals
TTITLE4=Staffan Abeleen quintet - Päronet i Montecello
TTITLE5=Arne Domnérus orkester - e augusti
TTITLE6=Do - Arne Domnérus orkester - Do
TTITLE7=Bengt Hallbergs trio and stråkkvartett - Collaboration
TTITLE8=Bernt Rosengrens kvintett - You've changed
TTITLE9=Bernt Rosengrens sextett - The theme
TTITLE10=Bernt Rosengren, Don Cherry and stråkensemble - Gabriella
TTITLE11=Monica Zetterlund, Jan Johansson and Co. - My blue heaven
TTITLE12=Monica Zetterlund, Jan Johansson and Co. - Lucky to be me
TTITLE13=Jan Johanssons trio - Rotation
TTITLE14=Harry Arnolds Radioband - Zdravstvutje
TTITLE15=Harry Arnolds Radioband - Sommar adjö
EXTD=YEAR: 2003
EXTT0=
EXTT1=
EXTT2=
EXTT3=
EXTT4=
EXTT5=
EXTT6=
EXTT7=
EXTT8=
EXTT9=
EXTT10=
EXTT11=
EXTT12=
EXTT13=
EXTT14=
EXTT15=
PLAYORDER=
